<mxfile host="app.diagrams.net" modified="2021-01-04T15:08:14.513Z" agent="5.0 (X11; Linux x86_64) AppleWebKit/537.36 (KHTML, like Gecko) Chrome/87.0.4280.88 Safari/537.36" etag="IlOKsh-Q7A_ZdwGnqy5m" version="14.1.8" type="github">
  <diagram name="Page-1" id="e3a06f82-3646-2815-327d-82caf3d4e204">
    <mxGraphModel dx="678" dy="385" grid="1" gridSize="10" guides="1" tooltips="1" connect="1" arrows="1" fold="1" page="1" pageScale="1.5" pageWidth="1169" pageHeight="826" background="none" math="0" shadow="0">
      <root>
        <mxCell id="0" style=";html=1;" />
        <mxCell id="1" style=";html=1;" parent="0" />
        <mxCell id="iXxBgydy_SKzQ6zbJFF8-17" value="&lt;b&gt;HIPERVISOR - PROXMOX&lt;/b&gt;" style="rounded=0;whiteSpace=wrap;html=1;fillColor=#fff2cc;strokeColor=#d6b656;labelPosition=center;verticalLabelPosition=bottom;align=center;verticalAlign=top;" vertex="1" parent="1">
          <mxGeometry x="640" y="290" width="450" height="270" as="geometry" />
        </mxCell>
        <mxCell id="iXxBgydy_SKzQ6zbJFF8-29" value="" style="edgeStyle=orthogonalEdgeStyle;rounded=1;orthogonalLoop=1;jettySize=auto;html=1;strokeWidth=3;" edge="1" parent="1" source="iXxBgydy_SKzQ6zbJFF8-1" target="iXxBgydy_SKzQ6zbJFF8-5">
          <mxGeometry relative="1" as="geometry" />
        </mxCell>
        <mxCell id="iXxBgydy_SKzQ6zbJFF8-1" value="Internet" style="html=1;aspect=fixed;strokeColor=none;shadow=0;align=center;verticalAlign=bottom;fillColor=#3B8DF1;shape=mxgraph.gcp2.globe_world;labelPosition=center;verticalLabelPosition=top;fontStyle=1" vertex="1" parent="1">
          <mxGeometry x="825.6999999999999" y="90" width="63.16" height="60" as="geometry" />
        </mxCell>
        <mxCell id="iXxBgydy_SKzQ6zbJFF8-26" style="edgeStyle=orthogonalEdgeStyle;rounded=1;orthogonalLoop=1;jettySize=auto;html=1;strokeWidth=3;" edge="1" parent="1" source="iXxBgydy_SKzQ6zbJFF8-5" target="iXxBgydy_SKzQ6zbJFF8-13">
          <mxGeometry relative="1" as="geometry">
            <Array as="points">
              <mxPoint x="858" y="320" />
              <mxPoint x="858" y="320" />
            </Array>
          </mxGeometry>
        </mxCell>
        <mxCell id="iXxBgydy_SKzQ6zbJFF8-5" value="FW de Borda" style="outlineConnect=0;fontColor=#232F3E;gradientColor=#F54749;gradientDirection=north;fillColor=#C7131F;strokeColor=#ffffff;dashed=0;verticalLabelPosition=top;verticalAlign=bottom;align=center;html=1;fontSize=12;fontStyle=1;aspect=fixed;shape=mxgraph.aws4.resourceIcon;resIcon=mxgraph.aws4.firewall_manager;labelPosition=center;labelBackgroundColor=#ffffff;" vertex="1" parent="1">
          <mxGeometry x="832.8599999999999" y="220" width="50" height="50" as="geometry" />
        </mxCell>
        <mxCell id="iXxBgydy_SKzQ6zbJFF8-11" value="" style="shadow=0;dashed=0;html=1;strokeColor=none;fillColor=#4495D1;labelPosition=center;verticalLabelPosition=bottom;verticalAlign=top;align=center;outlineConnect=0;shape=mxgraph.veeam.vm_linux;" vertex="1" parent="1">
          <mxGeometry x="691.58" y="460" width="57.2" height="55.2" as="geometry" />
        </mxCell>
        <mxCell id="iXxBgydy_SKzQ6zbJFF8-12" value="" style="shadow=0;dashed=0;html=1;strokeColor=none;fillColor=#4495D1;labelPosition=center;verticalLabelPosition=bottom;verticalAlign=top;align=center;outlineConnect=0;shape=mxgraph.veeam.vm_windows;" vertex="1" parent="1">
          <mxGeometry x="777.5400000000001" y="460" width="57.2" height="55.2" as="geometry" />
        </mxCell>
        <mxCell id="iXxBgydy_SKzQ6zbJFF8-20" style="edgeStyle=orthogonalEdgeStyle;rounded=1;orthogonalLoop=1;jettySize=auto;html=1;strokeWidth=3;" edge="1" parent="1" source="iXxBgydy_SKzQ6zbJFF8-13" target="iXxBgydy_SKzQ6zbJFF8-11">
          <mxGeometry relative="1" as="geometry" />
        </mxCell>
        <mxCell id="iXxBgydy_SKzQ6zbJFF8-21" style="edgeStyle=orthogonalEdgeStyle;rounded=1;orthogonalLoop=1;jettySize=auto;html=1;strokeWidth=3;" edge="1" parent="1" source="iXxBgydy_SKzQ6zbJFF8-13" target="iXxBgydy_SKzQ6zbJFF8-15">
          <mxGeometry relative="1" as="geometry" />
        </mxCell>
        <mxCell id="iXxBgydy_SKzQ6zbJFF8-22" style="edgeStyle=orthogonalEdgeStyle;rounded=1;orthogonalLoop=1;jettySize=auto;html=1;strokeWidth=3;" edge="1" parent="1" source="iXxBgydy_SKzQ6zbJFF8-13" target="iXxBgydy_SKzQ6zbJFF8-12">
          <mxGeometry relative="1" as="geometry" />
        </mxCell>
        <mxCell id="iXxBgydy_SKzQ6zbJFF8-23" style="edgeStyle=orthogonalEdgeStyle;rounded=1;orthogonalLoop=1;jettySize=auto;html=1;strokeWidth=3;" edge="1" parent="1" source="iXxBgydy_SKzQ6zbJFF8-13" target="iXxBgydy_SKzQ6zbJFF8-14">
          <mxGeometry relative="1" as="geometry" />
        </mxCell>
        <mxCell id="iXxBgydy_SKzQ6zbJFF8-13" value="FW - PFSENSE" style="pointerEvents=1;shadow=0;dashed=0;html=1;strokeColor=none;fillColor=#DF8C42;labelPosition=center;verticalLabelPosition=bottom;verticalAlign=top;align=center;outlineConnect=0;shape=mxgraph.veeam2.firewall;fontStyle=1;labelBackgroundColor=#ffffff;" vertex="1" parent="1">
          <mxGeometry x="826.82" y="340" width="48.92" height="50" as="geometry" />
        </mxCell>
        <mxCell id="iXxBgydy_SKzQ6zbJFF8-14" value="" style="shape=image;html=1;verticalAlign=top;verticalLabelPosition=bottom;labelBackgroundColor=#ffffff;imageAspect=0;aspect=fixed;image=https://cdn3.iconfinder.com/data/icons/social-media-2169/24/social_media_social_media_logo_docker-128.png" vertex="1" parent="1">
          <mxGeometry x="872.74" y="460" width="50" height="50" as="geometry" />
        </mxCell>
        <mxCell id="iXxBgydy_SKzQ6zbJFF8-15" value="" style="pointerEvents=1;shadow=0;dashed=0;html=1;strokeColor=none;fillColor=#005F4B;labelPosition=center;verticalLabelPosition=bottom;verticalAlign=top;align=center;outlineConnect=0;shape=mxgraph.veeam2.nas;" vertex="1" parent="1">
          <mxGeometry x="970" y="467.6" width="38" height="40" as="geometry" />
        </mxCell>
        <mxCell id="iXxBgydy_SKzQ6zbJFF8-27" value="WAN: 192.168.1.2/24&lt;br&gt;LAN: 192.168.2.1/24" style="text;html=1;strokeColor=#b85450;fillColor=#f8cecc;align=center;verticalAlign=middle;whiteSpace=wrap;rounded=0;" vertex="1" parent="1">
          <mxGeometry x="900" y="320" width="160" height="30" as="geometry" />
        </mxCell>
        <mxCell id="iXxBgydy_SKzQ6zbJFF8-28" value="WAN: IP PUBLICO&lt;br&gt;LAN: 192.168.1.1/24" style="text;html=1;strokeColor=#b85450;fillColor=#f8cecc;align=center;verticalAlign=middle;whiteSpace=wrap;rounded=0;" vertex="1" parent="1">
          <mxGeometry x="900" y="230" width="160" height="30" as="geometry" />
        </mxCell>
        <mxCell id="iXxBgydy_SKzQ6zbJFF8-33" style="edgeStyle=orthogonalEdgeStyle;rounded=1;orthogonalLoop=1;jettySize=auto;html=1;strokeWidth=3;" edge="1" parent="1" source="iXxBgydy_SKzQ6zbJFF8-32" target="iXxBgydy_SKzQ6zbJFF8-13">
          <mxGeometry relative="1" as="geometry">
            <Array as="points">
              <mxPoint x="722" y="310" />
              <mxPoint x="840" y="310" />
            </Array>
          </mxGeometry>
        </mxCell>
        <mxCell id="iXxBgydy_SKzQ6zbJFF8-32" value="" style="shadow=0;dashed=0;html=1;strokeColor=none;fillColor=#4495D1;labelPosition=center;verticalLabelPosition=bottom;verticalAlign=top;align=center;outlineConnect=0;shape=mxgraph.veeam.vpn;labelBackgroundColor=#ffffff;" vertex="1" parent="1">
          <mxGeometry x="693.18" y="226" width="56.82" height="44" as="geometry" />
        </mxCell>
        <mxCell id="iXxBgydy_SKzQ6zbJFF8-34" value="REDE VPN: 192.168.3.1/24" style="text;html=1;strokeColor=#b85450;fillColor=#f8cecc;align=center;verticalAlign=middle;whiteSpace=wrap;rounded=0;" vertex="1" parent="1">
          <mxGeometry x="650" y="320" width="160" height="30" as="geometry" />
        </mxCell>
      </root>
    </mxGraphModel>
  </diagram>
</mxfile>
